<svg width="200" height="44" viewBox="0 0 200 44" fill="none" xmlns="http://www.w3.org/2000/svg">
<g clip-path="url(#clip0_307_1390)">
<path d="M15.7078 35.6022H12.5792L11.3318 27.7134H4.28621L3.03877 35.6022H0V35.5124L6.32204 0.0351562H9.43067L15.7078 35.6022ZM10.9276 24.9241L7.81897 5.70354L4.69038 24.9241H10.9276Z" fill="#009FE3"/>
<path d="M33.4665 20.7981H30.4976V16.2424L24.9489 16.422V35.6027H21.9551V13.5479H24.9489V14.1567C25.9469 14.007 26.9448 13.849 27.9428 13.6826C28.9327 13.5184 29.9334 13.4266 30.9367 13.4082C32.6032 13.4082 33.4316 14.2315 33.4316 15.8781L33.4665 20.7981Z" fill="#009FE3"/>
<path d="M52.1529 41.4051C52.1529 43.1116 51.2997 43.9649 49.5932 43.9649H42.4129C40.6764 43.9649 39.8082 42.8871 39.8082 40.7215C39.8082 40.467 39.8082 40.0828 39.8431 39.5789C39.8781 39.0749 39.8781 38.7057 39.8781 38.4811H42.8719V41.4051H49.164V35.602H44.1743C43.5516 35.6199 42.932 35.509 42.3541 35.2763C41.7763 35.0436 41.2527 34.6942 40.8162 34.2498C40.3753 33.8051 40.0295 33.2755 39.7996 32.6931C39.5697 32.1107 39.4606 31.4876 39.4789 30.8617V17.9632C39.4411 16.7687 39.8645 15.6054 40.6615 14.7148C41.051 14.2823 41.531 13.9409 42.0675 13.715C42.6039 13.489 43.1835 13.3841 43.7651 13.4075C44.1144 13.4075 45.9007 13.657 49.1391 14.156V13.5472H52.133L52.1529 41.4051ZM49.159 32.9225V16.2866C46.7673 16.1369 45.3768 16.0621 44.9876 16.0621C43.321 16.0621 42.4927 16.9053 42.4927 18.6019V30.4077C42.4927 32.1042 43.321 32.9475 44.9876 32.9475L49.159 32.9225Z" fill="#009FE3"/>
<path d="M71.2288 2.91428H62.9558V16.3867H70.5702V19.2209H62.9558V35.6023H59.8022V0.125H71.2288V2.91428Z" fill="#1D1D1B"/>
<path d="M90.2101 33.0379C90.2101 34.7477 89.3552 35.6026 87.6454 35.6026H80.0759C78.3861 35.6026 77.5395 34.7477 77.5361 33.0379V16.1076C77.5361 14.4011 78.3827 13.5479 80.0759 13.5479H87.6454C89.3586 13.5479 90.2135 14.4011 90.2101 16.1076V33.0379ZM87.2163 32.9481V16.1974H80.5549V32.968L87.2163 32.9481Z" fill="#1D1D1B"/>
<path d="M110.074 35.6026H107.105V34.9889L103.503 35.4879C102.308 35.6489 101.105 35.7389 99.9002 35.7573C98.2635 35.7573 97.4502 34.944 97.4502 33.3073V13.5479H100.419V32.9032L107.105 32.7235V13.5479H110.074V35.6026Z" fill="#1D1D1B"/>
<path d="M129.988 35.6027H126.995V16.2424L120.353 16.422V35.6027H117.359V13.5479H120.353V14.1567C121.536 14.007 122.718 13.8473 123.916 13.6826C125.102 13.5182 126.297 13.4265 127.494 13.4082C129.173 13.4082 130.005 14.2315 129.988 15.8781V35.6027Z" fill="#1D1D1B"/>
<path d="M149.718 35.6023H146.724V34.9885C143.491 35.4875 141.7 35.737 141.35 35.737C140.769 35.759 140.191 35.6539 139.655 35.4289C139.119 35.204 138.638 34.8647 138.247 34.4347C137.453 33.5404 137.032 32.3764 137.069 31.1813V18.2828C137.05 17.6568 137.159 17.0335 137.389 16.4509C137.619 15.8684 137.965 15.3389 138.406 14.8947C138.843 14.4524 139.366 14.1045 139.943 13.8728C140.52 13.641 141.138 13.5303 141.76 13.5475H146.724V0.125H149.718V35.6023ZM146.724 32.8579V16.1971H142.553C140.89 16.1971 140.058 17.0503 140.058 18.7568V30.5476C140.058 32.2408 140.89 33.0874 142.553 33.0874C142.947 33.0874 144.339 33.0076 146.724 32.8579Z" fill="#1D1D1B"/>
<path d="M160.196 8.71735H157.138V4.91016H160.196V8.71735ZM160.171 35.6022H157.178V13.5474H160.171V35.6022Z" fill="#1D1D1B"/>
<path d="M180.27 35.6027H177.276V16.2424L170.63 16.422V35.6027H167.636V13.5479H170.63V14.1567C171.813 14.007 172.995 13.8473 174.193 13.6826C175.379 13.5182 176.573 13.4265 177.77 13.4082C179.454 13.4082 180.285 14.2315 180.265 15.8781L180.27 35.6027Z" fill="#1D1D1B"/>
<path d="M200 41.4056C200 43.1121 199.145 43.9653 197.435 43.9653H190.275C188.538 43.9653 187.665 42.8875 187.665 40.722C187.665 40.4675 187.665 40.0833 187.7 39.5793C187.735 39.0754 187.735 38.7061 187.735 38.4816H190.704V41.4056H197.006V35.6025H192.041C191.419 35.6199 190.801 35.5088 190.224 35.2762C189.647 35.0435 189.124 34.6942 188.688 34.2503C188.247 33.8061 187.9 33.2766 187.67 32.694C187.44 32.1115 187.332 31.4882 187.351 30.8622V17.9636C187.314 16.7701 187.735 15.6077 188.528 14.7153C188.919 14.2844 189.4 13.9441 189.936 13.7183C190.472 13.4925 191.051 13.3866 191.632 13.408C191.981 13.408 193.773 13.6575 197.006 14.1564V13.5477H200V41.4056ZM197.006 32.923V16.2871C194.621 16.1374 193.231 16.0625 192.835 16.0625C191.173 16.0625 190.34 16.9058 190.34 18.6023V30.4081C190.34 32.1046 191.168 32.9479 192.835 32.9479L197.006 32.923Z" fill="#1D1D1B"/>
</g>
<defs>
<clipPath id="clip0_307_1390">
<rect width="200" height="43.9299" fill="white" transform="translate(0 0.0351562)"/>
</clipPath>
</defs>
</svg>
